millimetreA Black condensed 01.ufo
<glyph name="exclam" format="1">
  <advance width="250"/>
  <unicode hex="0021"/>
  <outline>
    <contour>
      <point x="75" y="250" type="line"/>
      <point x="175" y="250" type="line"/>
      <point x="200" y="500" type="line"/>
      <point x="200" y="700" type="line"/>
      <point x="50" y="700" type="line"/>
      <point x="50" y="500" type="line"/>
    </contour>
    <contour>
      <point x="50" y="0" type="line"/>
      <point x="200" y="0" type="line"/>
      <point x="200" y="150" type="line"/>
      <point x="50" y="150" type="line"/>
    </contour>
  </outline>
</glyph>
<glyph name="parenleft" format="1">
  <advance width="250"/>
  <unicode hex="0028"/>
  <outline>
    <contour>
      <point x="250" y="-200" type="curve"/>
      <point x="270" y="-200" type="line"/>
      <point x="270" y="-75" type="line"/>
      <point x="250" y="-75" type="line"/>
      <point x="220" y="-75"/>
      <point x="200" y="-65"/>
      <point x="200" y="-25" type="curve" smooth="yes"/>
      <point x="200" y="260" type="line"/>
      <point x="50" y="260" type="line"/>
      <point x="50" y="-25" type="line" smooth="yes"/>
      <point x="50" y="-140"/>
      <point x="120" y="-200"/>
    </contour>
    <contour>
      <point x="250" y="700" type="line"/>
      <point x="120" y="700"/>
      <point x="50" y="640"/>
      <point x="50" y="525" type="curve" smooth="yes"/>
      <point x="50" y="240" type="line"/>
      <point x="200" y="240" type="line"/>
      <point x="200" y="525" type="line" smooth="yes"/>
      <point x="200" y="565"/>
      <point x="220" y="575"/>
      <point x="250" y="575" type="curve"/>
      <point x="270" y="575" type="line"/>
      <point x="270" y="700" type="line"/>
    </contour>
  </outline>
</glyph>
<glyph name="B" format="1">
  <advance width="600"/>
  <unicode hex="0042"/>
  <outline>
    <contour>
      <point x="330" y="415" type="curve"/>
      <point x="110" y="450" type="line"/>
      <point x="110" y="300" type="line"/>
      <point x="300" y="300" type="line"/>
      <point x="385" y="300"/>
      <point x="400" y="280"/>
      <point x="400" y="235" type="curve" smooth="yes"/>
      <point x="400" y="225" type="line"/>
      <point x="550" y="225" type="line"/>
      <point x="550" y="255" type="line"/>
      <point x="550" y="365"/>
      <point x="470" y="415"/>
    </contour>
    <contour>
      <point x="330" y="0" type="line" smooth="yes"/>
      <point x="470" y="0"/>
      <point x="550" y="65"/>
      <point x="550" y="195" type="curve"/>
      <point x="550" y="225" type="line"/>
      <point x="400" y="225" type="line"/>
      <point x="400" y="215" type="line" smooth="yes"/>
      <point x="400" y="170"/>
      <point x="385" y="150"/>
      <point x="300" y="150" type="curve"/>
      <point x="110" y="150" type="line"/>
      <point x="110" y="0" type="line"/>
    </contour>
    <contour>
      <point x="365" y="700" type="curve" smooth="yes"/>
      <point x="110" y="700" type="line"/>
      <point x="110" y="550" type="line"/>
      <point x="350" y="550" type="line"/>
      <point x="390" y="550"/>
      <point x="400" y="535"/>
      <point x="400" y="500" type="curve"/>
      <point x="550" y="500" type="line"/>
      <point x="550" y="625"/>
      <point x="480" y="700"/>
    </contour>
    <contour>
      <point x="350" y="450" type="curve"/>
      <point x="130" y="450" type="line"/>
      <point x="100" y="300" type="line"/>
      <point x="345" y="300" type="line"/>
      <point x="400" y="345" type="line"/>
      <point x="480" y="345"/>
      <point x="550" y="400"/>
      <point x="550" y="500" type="curve"/>
      <point x="400" y="500" type="line"/>
      <point x="400" y="465"/>
      <point x="390" y="450"/>
    </contour>
    <contour>
      <point x="200" y="0" type="line"/>
      <point x="200" y="700" type="line"/>
      <point x="50" y="700" type="line"/>
      <point x="50" y="0" type="line"/>
    </contour>
  </outline>
</glyph>
<glyph name="G" format="1">
  <advance width="600"/>
  <unicode hex="0047"/>
  <outline>
    <contour>
      <point x="330" y="700" type="curve" smooth="yes"/>
      <point x="300" y="700" type="line"/>
      <point x="300" y="550" type="line"/>
      <point x="370" y="550"/>
      <point x="400" y="530"/>
      <point x="400" y="460" type="curve" smooth="yes"/>
      <point x="400" y="400" type="line"/>
      <point x="550" y="400" type="line"/>
      <point x="550" y="480" type="line"/>
      <point x="550" y="630"/>
      <point x="470" y="700"/>
    </contour>
    <contour>
      <point x="270" y="700" type="line" smooth="yes"/>
      <point x="130" y="700"/>
      <point x="50" y="630"/>
      <point x="50" y="455" type="curve"/>
      <point x="50" y="350" type="line"/>
      <point x="200" y="350" type="line"/>
      <point x="200" y="460" type="line" smooth="yes"/>
      <point x="200" y="530"/>
      <point x="220" y="550"/>
      <point x="300" y="550" type="curve"/>
      <point x="300" y="700" type="line"/>
    </contour>
    <contour>
      <point x="300" y="200" type="line"/>
      <point x="600" y="200" type="line"/>
      <point x="600" y="350" type="line"/>
      <point x="300" y="350" type="line"/>
    </contour>
    <contour>
      <point x="540" y="200" type="line"/>
      <point x="400" y="200" type="line"/>
      <point x="400.0" y="80.0" type="line"/>
      <point x="410.0" y="0.0" type="line"/>
      <point x="550.0" y="0.0" type="line"/>
      <point x="550.0" y="102.0" type="line"/>
    </contour>
    <contour>
      <point x="200" y="240" type="curve"/>
      <point x="200" y="350" type="line"/>
      <point x="50" y="350" type="line"/>
      <point x="50" y="210" type="line"/>
      <point x="50" y="50"/>
      <point x="110" y="-10"/>
      <point x="240" y="-10" type="curve"/>
      <point x="335" y="-10"/>
      <point x="390" y="25"/>
      <point x="400" y="80" type="curve"/>
      <point x="400" y="200" type="line"/>
      <point x="400" y="155"/>
      <point x="375" y="140"/>
      <point x="300" y="140" type="curve" smooth="yes"/>
      <point x="230" y="140"/>
      <point x="200" y="170"/>
    </contour>
  </outline>
</glyph>
<glyph name="backslash" format="1">
  <advance width="250"/>
  <unicode hex="005C"/>
  <outline>
    <contour>
      <point x="250" y="0" type="line"/>
      <point x="150" y="700" type="line"/>
      <point x="0" y="700" type="line"/>
      <point x="100" y="0" type="line"/>
    </contour>
  </outline>
</glyph>
<glyph name="a" format="1">
  <advance width="550"/>
  <unicode hex="0061"/>
  <outline>
    <contour>
      <point x="25" y="345" type="curve"/>
      <point x="25" y="325" type="line"/>
      <point x="225" y="325" type="line"/>
      <point x="225" y="335" type="line"/>
      <point x="225" y="345"/>
      <point x="230" y="350"/>
      <point x="275" y="350" type="curve" smooth="yes"/>
      <point x="320" y="350"/>
      <point x="325" y="345"/>
      <point x="325" y="320" type="curve" smooth="yes"/>
      <point x="325" y="220" type="line"/>
      <point x="525" y="250" type="line"/>
      <point x="525" y="330" type="line"/>
      <point x="525" y="440"/>
      <point x="455" y="510"/>
      <point x="275" y="510" type="curve" smooth="yes"/>
      <point x="85" y="510"/>
      <point x="25" y="455"/>
    </contour>
    <contour>
      <point x="525" y="250" type="line"/>
      <point x="325" y="250" type="line"/>
      <point x="325" y="80" type="line"/>
      <point x="340" y="0" type="line"/>
      <point x="525" y="0" type="line"/>
    </contour>
    <contour>
      <point x="15" y="140" type="curve"/>
      <point x="15" y="30"/>
      <point x="55" y="-10"/>
      <point x="175" y="-10" type="curve"/>
      <point x="285" y="-10"/>
      <point x="315" y="25"/>
      <point x="325" y="80" type="curve"/>
      <point x="325" y="180" type="line"/>
      <point x="325" y="160"/>
      <point x="310" y="155"/>
      <point x="250" y="155" type="curve" smooth="yes"/>
      <point x="220" y="155"/>
      <point x="215" y="160"/>
      <point x="215" y="175" type="curve"/>
      <point x="215" y="195"/>
      <point x="225" y="200"/>
      <point x="325" y="210" type="curve"/>
      <point x="325" y="305" type="line"/>
      <point x="65" y="295"/>
      <point x="15" y="265"/>
    </contour>
    <contour>
      <point x="275" y="500" type="move" name="top"/>
    </contour>
  </outline>
</glyph>
<glyph name="e" format="1">
  <advance width="600"/>
  <unicode hex="0065"/>
  <outline>
    <contour>
      <point x="100" y="205" type="line"/>
      <point x="550" y="205" type="line"/>
      <point x="550" y="295" type="line"/>
      <point x="100" y="295" type="line"/>
    </contour>
    <contour>
      <point x="550" y="320" type="line"/>
      <point x="550" y="460"/>
      <point x="490" y="510"/>
      <point x="300" y="510" type="curve" smooth="yes"/>
      <point x="120" y="510"/>
      <point x="50" y="440"/>
      <point x="50" y="310" type="curve"/>
      <point x="50" y="250" type="line"/>
      <point x="200" y="250" type="line"/>
      <point x="200" y="310" type="line" smooth="yes"/>
      <point x="200" y="350"/>
      <point x="220" y="360"/>
      <point x="300" y="360" type="curve" smooth="yes"/>
      <point x="380" y="360"/>
      <point x="400" y="350"/>
      <point x="400" y="320" type="curve"/>
      <point x="400" y="290" type="line"/>
      <point x="550" y="290" type="line"/>
    </contour>
    <contour>
      <point x="550" y="155" type="curve"/>
      <point x="550" y="175" type="line"/>
      <point x="400" y="175" type="line"/>
      <point x="400" y="165" type="line"/>
      <point x="400" y="145"/>
      <point x="387" y="140"/>
      <point x="300" y="140" type="curve" smooth="yes"/>
      <point x="215" y="140"/>
      <point x="200" y="145"/>
      <point x="200" y="180" type="curve" smooth="yes"/>
      <point x="200" y="280" type="line"/>
      <point x="50" y="250" type="line"/>
      <point x="50" y="170" type="line"/>
      <point x="50" y="60"/>
      <point x="120" y="-10"/>
      <point x="300" y="-10" type="curve" smooth="yes"/>
      <point x="490" y="-10"/>
      <point x="550" y="45"/>
    </contour>
    <contour>
      <point x="300.0" y="500.0" type="move" name="top"/>
    </contour>
  </outline>
</glyph>
<glyph name="g" format="1">
  <advance width="700"/>
  <unicode hex="0067"/>
  <outline>
    <contour>
      <point x="450" y="340" type="curve"/>
      <point x="450" y="360" type="line"/>
      <point x="450" y="450"/>
      <point x="380" y="510"/>
      <point x="250" y="510" type="curve"/>
      <point x="120" y="510"/>
      <point x="50" y="450"/>
      <point x="50" y="360" type="curve"/>
      <point x="50" y="340" type="line"/>
      <point x="50" y="250"/>
      <point x="120" y="190"/>
      <point x="250" y="190" type="curve"/>
      <point x="380" y="190"/>
      <point x="450" y="250"/>
    </contour>
    <contour>
      <point x="190" y="240" type="line"/>
      <point x="100" y="240"/>
      <point x="50" y="210"/>
      <point x="50" y="130" type="curve" smooth="yes"/>
      <point x="50" y="50"/>
      <point x="110" y="0"/>
      <point x="200" y="0" type="curve"/>
      <point x="410" y="0" type="line"/>
      <point x="410" y="150" type="line"/>
      <point x="250" y="150" type="line" smooth="yes"/>
      <point x="210" y="150"/>
      <point x="200" y="150"/>
      <point x="200" y="170" type="curve" smooth="yes"/>
      <point x="200" y="185"/>
      <point x="210" y="190"/>
      <point x="240" y="190" type="curve"/>
      <point x="260" y="190" type="line"/>
      <point x="260" y="240" type="line"/>
    </contour>
    <contour>
      <point x="240" y="0" type="curve" smooth="yes"/>
      <point x="460" y="0" type="line" smooth="yes"/>
      <point x="500" y="0"/>
      <point x="510" y="-10"/>
      <point x="510" y="-35" type="curve"/>
      <point x="510" y="-65"/>
      <point x="500" y="-75"/>
      <point x="460" y="-75" type="curve" smooth="yes"/>
      <point x="240" y="-75" type="line" smooth="yes"/>
      <point x="200" y="-75"/>
      <point x="190" y="-65"/>
      <point x="190" y="-35" type="curve"/>
      <point x="190" y="-10"/>
      <point x="200" y="0"/>
    </contour>
    <contour>
      <point x="495" y="150" type="curve"/>
      <point x="300" y="150" type="line"/>
      <point x="190" y="50" type="line"/>
      <point x="100" y="50"/>
      <point x="40" y="10"/>
      <point x="40" y="-70" type="curve"/>
      <point x="40" y="-140"/>
      <point x="100" y="-200"/>
      <point x="190" y="-200" type="curve"/>
      <point x="460" y="-200" type="line"/>
      <point x="600" y="-200"/>
      <point x="660" y="-130"/>
      <point x="665" y="-20" type="curve"/>
      <point x="660" y="90"/>
      <point x="585" y="150"/>
    </contour>
    <contour>
      <point x="310" y="355" type="curve" smooth="yes"/>
      <point x="310" y="345" type="line" smooth="yes"/>
      <point x="310" y="320"/>
      <point x="290" y="305"/>
      <point x="250" y="305" type="curve"/>
      <point x="210" y="305"/>
      <point x="190" y="320"/>
      <point x="190" y="345" type="curve" smooth="yes"/>
      <point x="190" y="355" type="line" smooth="yes"/>
      <point x="190" y="380"/>
      <point x="210" y="395"/>
      <point x="250" y="395" type="curve"/>
      <point x="290" y="395"/>
      <point x="310" y="380"/>
    </contour>
    <contour>
      <point x="420" y="420" type="curve"/>
      <point x="450" y="340" type="line"/>
      <point x="450" y="375"/>
      <point x="460" y="385"/>
      <point x="480" y="385" type="curve" smooth="yes"/>
      <point x="500" y="385"/>
      <point x="510" y="375"/>
      <point x="510" y="335" type="curve"/>
      <point x="510" y="200" type="line"/>
      <point x="650" y="200" type="line"/>
      <point x="650" y="390" type="line"/>
      <point x="650" y="460"/>
      <point x="600" y="510"/>
      <point x="530" y="510" type="curve" smooth="yes"/>
      <point x="460" y="510"/>
      <point x="420" y="480"/>
    </contour>
  </outline>
</glyph>
<glyph name="h" format="1">
  <advance width="550"/>
  <unicode hex="0068"/>
  <outline>
    <contour>
      <point x="25" y="0" type="line"/>
      <point x="225" y="0" type="line"/>
      <point x="225" y="700" type="line"/>
      <point x="25" y="700" type="line"/>
    </contour>
    <contour>
      <point x="225" y="425" type="curve"/>
      <point x="225" y="260" type="line"/>
      <point x="225" y="300"/>
      <point x="235" y="310"/>
      <point x="275" y="310" type="curve" smooth="yes"/>
      <point x="315" y="310"/>
      <point x="325" y="300"/>
      <point x="325" y="260" type="curve"/>
      <point x="325" y="0" type="line"/>
      <point x="525" y="0" type="line"/>
      <point x="525" y="290" type="line"/>
      <point x="525" y="455"/>
      <point x="480" y="510"/>
      <point x="350" y="510" type="curve"/>
      <point x="270" y="510"/>
      <point x="240" y="480"/>
    </contour>
    <contour>
      <point x="275" y="500" type="move" name="top"/>
    </contour>
    <contour>
      <point x="275" y="500" type="move" name="top"/>
    </contour>
  </outline>
</glyph>
<glyph name="k" format="1">
  <advance width="600"/>
  <unicode hex="006B"/>
  <outline>
    <contour>
      <point x="50" y="0" type="line"/>
      <point x="200" y="0" type="line"/>
      <point x="200" y="700" type="line"/>
      <point x="50" y="700" type="line"/>
    </contour>
    <contour>
      <point x="130" y="175" type="line"/>
      <point x="300" y="175" type="line"/>
      <point x="300" y="325" type="line"/>
      <point x="130" y="325" type="line"/>
    </contour>
    <contour>
      <point x="340" y="205" type="line"/>
      <point x="470" y="205"/>
      <point x="520" y="290"/>
      <point x="540" y="425" type="curve" smooth="yes"/>
      <point x="550" y="500" type="line"/>
      <point x="400" y="500" type="line"/>
      <point x="390" y="425" type="line" smooth="yes"/>
      <point x="380" y="335"/>
      <point x="370" y="325"/>
      <point x="290" y="325" type="curve"/>
      <point x="300" y="175" type="line"/>
    </contour>
    <contour>
      <point x="340" y="295" type="curve"/>
      <point x="300" y="325" type="line"/>
      <point x="290" y="175" type="line"/>
      <point x="370" y="175"/>
      <point x="380" y="165"/>
      <point x="390" y="75" type="curve" smooth="yes"/>
      <point x="400" y="0" type="line"/>
      <point x="550" y="0" type="line"/>
      <point x="540" y="75" type="line" smooth="yes"/>
      <point x="520" y="210"/>
      <point x="470" y="295"/>
    </contour>
  </outline>
</glyph>
<glyph name="n" format="1">
  <advance width="550"/>
  <unicode hex="006E"/>
  <outline>
    <contour>
      <point x="25" y="0" type="line"/>
      <point x="225" y="0" type="line"/>
      <point x="225" y="425" type="line"/>
      <point x="200" y="500" type="line"/>
      <point x="25" y="500" type="line"/>
    </contour>
    <contour>
      <point x="225" y="425" type="curve"/>
      <point x="225" y="260" type="line"/>
      <point x="225" y="300"/>
      <point x="235" y="310"/>
      <point x="275" y="310" type="curve" smooth="yes"/>
      <point x="315" y="310"/>
      <point x="325" y="300"/>
      <point x="325" y="260" type="curve"/>
      <point x="325" y="0" type="line"/>
      <point x="525" y="0" type="line"/>
      <point x="525" y="290" type="line"/>
      <point x="525" y="455"/>
      <point x="480" y="510"/>
      <point x="350" y="510" type="curve"/>
      <point x="270" y="510"/>
      <point x="240" y="480"/>
    </contour>
    <contour>
      <point x="275" y="500" type="move" name="top"/>
    </contour>
  </outline>
</glyph>
<glyph name="o" format="1">
  <advance width="550"/>
  <unicode hex="006F"/>
  <outline>
    <contour>
      <point x="275" y="-10" type="curve"/>
      <point x="460" y="-10"/>
      <point x="530" y="75"/>
      <point x="530" y="220" type="curve"/>
      <point x="530" y="250" type="line"/>
      <point x="330" y="250" type="line"/>
      <point x="330" y="240" type="line" smooth="yes"/>
      <point x="330" y="205"/>
      <point x="320" y="190"/>
      <point x="275" y="190" type="curve"/>
      <point x="230" y="190"/>
      <point x="220" y="205"/>
      <point x="220" y="240" type="curve" smooth="yes"/>
      <point x="220" y="250" type="line"/>
      <point x="20" y="250" type="line"/>
      <point x="20" y="220" type="line"/>
      <point x="20" y="75"/>
      <point x="90" y="-10"/>
    </contour>
    <contour>
      <point x="275" y="510" type="curve"/>
      <point x="90" y="510"/>
      <point x="20" y="425"/>
      <point x="20" y="280" type="curve"/>
      <point x="20" y="250" type="line"/>
      <point x="220" y="250" type="line"/>
      <point x="220" y="260" type="line" smooth="yes"/>
      <point x="220" y="295"/>
      <point x="230" y="310"/>
      <point x="275" y="310" type="curve"/>
      <point x="320" y="310"/>
      <point x="330" y="295"/>
      <point x="330" y="260" type="curve" smooth="yes"/>
      <point x="330" y="250" type="line"/>
      <point x="530" y="250" type="line"/>
      <point x="530" y="280" type="line"/>
      <point x="530" y="425"/>
      <point x="460" y="510"/>
    </contour>
    <contour>
      <point x="275" y="500" type="move" name="top"/>
    </contour>
  </outline>
</glyph>
<glyph name="r" format="1">
  <advance width="400"/>
  <unicode hex="0072"/>
  <outline>
    <contour>
      <point x="50" y="0" type="line"/>
      <point x="200" y="0" type="line"/>
      <point x="200" y="420" type="line"/>
      <point x="190" y="500" type="line"/>
      <point x="50" y="500" type="line"/>
    </contour>
    <contour>
      <point x="200" y="420" type="curve"/>
      <point x="200" y="260" type="line"/>
      <point x="200" y="335"/>
      <point x="220" y="350"/>
      <point x="300" y="350" type="curve"/>
      <point x="400" y="350" type="line"/>
      <point x="400" y="500" type="line"/>
      <point x="330" y="500" type="line"/>
      <point x="245" y="500"/>
      <point x="215" y="475"/>
    </contour>
  </outline>
</glyph>
<glyph name="s" format="1">
  <advance width="550"/>
  <unicode hex="0073"/>
  <outline>
    <contour>
      <point x="275" y="195" type="curve" smooth="yes"/>
      <point x="325" y="190"/>
      <point x="335" y="185"/>
      <point x="335" y="165" type="curve" smooth="yes"/>
      <point x="335" y="150"/>
      <point x="320" y="150"/>
      <point x="275" y="150" type="curve" smooth="yes"/>
      <point x="235" y="150"/>
      <point x="225" y="150"/>
      <point x="225" y="165" type="curve"/>
      <point x="225" y="175" type="line"/>
      <point x="25" y="175" type="line"/>
      <point x="25" y="130" type="line"/>
      <point x="25" y="40"/>
      <point x="85" y="-10"/>
      <point x="275" y="-10" type="curve" smooth="yes"/>
      <point x="455" y="-10"/>
      <point x="535" y="50"/>
      <point x="535" y="150" type="curve"/>
      <point x="535" y="265"/>
      <point x="475" y="285"/>
      <point x="275" y="305" type="curve" smooth="yes"/>
      <point x="225" y="310"/>
      <point x="215" y="315"/>
      <point x="215" y="335" type="curve" smooth="yes"/>
      <point x="215" y="350"/>
      <point x="230" y="350"/>
      <point x="275" y="350" type="curve" smooth="yes"/>
      <point x="315" y="350"/>
      <point x="325" y="350"/>
      <point x="325" y="335" type="curve"/>
      <point x="325" y="325" type="line"/>
      <point x="525" y="325" type="line"/>
      <point x="525" y="370" type="line"/>
      <point x="525" y="460"/>
      <point x="465" y="510"/>
      <point x="275" y="510" type="curve" smooth="yes"/>
      <point x="95" y="510"/>
      <point x="15" y="450"/>
      <point x="15" y="350" type="curve"/>
      <point x="15" y="235"/>
      <point x="75" y="215"/>
    </contour>
  </outline>
</glyph>
<glyph name="w" format="1">
  <advance width="950"/>
  <unicode hex="0077"/>
  <outline>
    <contour>
      <point x="250" y="0" type="curve"/>
      <point x="390" y="75" type="line"/>
      <point x="240" y="175"/>
      <point x="200" y="250"/>
      <point x="200" y="400" type="curve" smooth="yes"/>
      <point x="200" y="500" type="line"/>
      <point x="50" y="500" type="line"/>
      <point x="50" y="400" type="line" smooth="yes"/>
      <point x="50" y="250"/>
      <point x="90" y="100"/>
    </contour>
    <contour>
      <point x="700" y="0" type="line"/>
      <point x="860" y="100"/>
      <point x="900" y="250"/>
      <point x="900" y="400" type="curve" smooth="yes"/>
      <point x="900" y="500" type="line"/>
      <point x="750" y="500" type="line"/>
      <point x="750" y="400" type="line" smooth="yes"/>
      <point x="750" y="250"/>
      <point x="710" y="175"/>
      <point x="560" y="75" type="curve"/>
      <point x="600" y="0" type="line"/>
    </contour>
    <contour>
      <point x="600" y="0" type="curve"/>
      <point x="740" y="75" type="line"/>
      <point x="590" y="175"/>
      <point x="550" y="250"/>
      <point x="550" y="400" type="curve" smooth="yes"/>
      <point x="550" y="500" type="line"/>
      <point x="400" y="500" type="line"/>
      <point x="400" y="400" type="line" smooth="yes"/>
      <point x="400" y="250"/>
      <point x="360" y="175"/>
      <point x="210" y="75" type="curve"/>
      <point x="250" y="0" type="line"/>
      <point x="350" y="0" type="line"/>
      <point x="405" y="35"/>
      <point x="455" y="100"/>
      <point x="475" y="155" type="curve"/>
      <point x="495" y="100"/>
      <point x="545" y="35"/>
    </contour>
  </outline>
</glyph>
<glyph name="dieresis" format="1">
  <advance width="200"/>
  <unicode hex="00A8"/>
  <outline>
    <contour>
      <point x="-25" y="575" type="line"/>
      <point x="85" y="575" type="line"/>
      <point x="85" y="700" type="line"/>
      <point x="-35" y="700" type="line"/>
    </contour>
    <contour>
      <point x="115" y="575" type="line"/>
      <point x="225" y="575" type="line"/>
      <point x="235" y="700" type="line"/>
      <point x="115" y="700" type="line"/>
    </contour>
    <contour>
      <point x="100" y="500" type="move" name="_top"/>
    </contour>
  </outline>
</glyph>
<glyph name="copyright" format="1">
  <advance width="800"/>
  <unicode hex="00A9"/>
  <outline>
    <contour>
      <point x="430" y="700" type="curve" smooth="yes"/>
      <point x="400" y="700" type="line"/>
      <point x="400" y="600" type="line"/>
      <point x="600" y="600"/>
      <point x="650" y="530"/>
      <point x="650" y="410" type="curve" smooth="yes"/>
      <point x="650" y="350" type="line"/>
      <point x="750" y="350" type="line"/>
      <point x="750" y="430" type="line"/>
      <point x="750" y="590"/>
      <point x="640" y="700"/>
    </contour>
    <contour>
      <point x="430" y="0" type="line" smooth="yes"/>
      <point x="640" y="0"/>
      <point x="750" y="110"/>
      <point x="750" y="270" type="curve"/>
      <point x="750" y="350" type="line"/>
      <point x="650" y="350" type="line"/>
      <point x="650" y="290" type="line" smooth="yes"/>
      <point x="650" y="160"/>
      <point x="600" y="100"/>
      <point x="400" y="100" type="curve"/>
      <point x="400" y="0" type="line"/>
    </contour>
    <contour>
      <point x="550" y="380" type="line"/>
      <point x="550" y="470"/>
      <point x="500" y="510"/>
      <point x="400" y="510" type="curve" smooth="yes"/>
      <point x="300" y="510"/>
      <point x="240" y="480"/>
      <point x="240" y="360" type="curve"/>
      <point x="240" y="350" type="line"/>
      <point x="340" y="350" type="line"/>
      <point x="340" y="360" type="line" smooth="yes"/>
      <point x="340" y="400"/>
      <point x="360" y="410"/>
      <point x="400" y="410" type="curve" smooth="yes"/>
      <point x="430" y="410"/>
      <point x="450" y="400"/>
      <point x="450" y="380" type="curve"/>
      <point x="450" y="370" type="line"/>
      <point x="550" y="370" type="line"/>
    </contour>
    <contour>
      <point x="550" y="320" type="curve"/>
      <point x="550" y="330" type="line"/>
      <point x="450" y="330" type="line"/>
      <point x="450" y="320" type="line"/>
      <point x="450" y="300"/>
      <point x="430" y="290"/>
      <point x="400" y="290" type="curve" smooth="yes"/>
      <point x="360" y="290"/>
      <point x="340" y="300"/>
      <point x="340" y="340" type="curve" smooth="yes"/>
      <point x="340" y="350" type="line"/>
      <point x="240" y="350" type="line"/>
      <point x="240" y="340" type="line"/>
      <point x="240" y="220"/>
      <point x="300" y="190"/>
      <point x="400" y="190" type="curve" smooth="yes"/>
      <point x="500" y="190"/>
      <point x="550" y="230"/>
    </contour>
    <contour>
      <point x="370" y="700" type="line" smooth="yes"/>
      <point x="160" y="700"/>
      <point x="50" y="590"/>
      <point x="50" y="430" type="curve"/>
      <point x="50" y="350" type="line"/>
      <point x="150" y="350" type="line"/>
      <point x="150" y="410" type="line" smooth="yes"/>
      <point x="150" y="540"/>
      <point x="200" y="600"/>
      <point x="400" y="600" type="curve"/>
      <point x="400" y="700" type="line"/>
    </contour>
    <contour>
      <point x="370" y="0" type="curve" smooth="yes"/>
      <point x="400" y="0" type="line"/>
      <point x="400" y="100" type="line"/>
      <point x="200" y="100"/>
      <point x="150" y="160"/>
      <point x="150" y="290" type="curve" smooth="yes"/>
      <point x="150" y="350" type="line"/>
      <point x="50" y="350" type="line"/>
      <point x="50" y="270" type="line"/>
      <point x="50" y="110"/>
      <point x="160" y="0"/>
    </contour>
    <contour>
      <point x="300.0" y="650.0" type="move" name="top"/>
    </contour>
  </outline>
</glyph>
<glyph name="ae" format="1">
  <advance width="950"/>
  <unicode hex="00E6"/>
  <outline>
    <contour>
      <point x="450" y="205" type="line"/>
      <point x="900" y="205" type="line"/>
      <point x="900" y="295" type="line"/>
      <point x="450" y="295" type="line"/>
    </contour>
    <contour>
      <point x="400" y="250" type="line"/>
      <point x="400" y="305" type="line"/>
      <point x="115" y="295"/>
      <point x="40" y="265"/>
      <point x="40" y="140" type="curve"/>
      <point x="40" y="30"/>
      <point x="105" y="-10"/>
      <point x="260" y="-10" type="curve"/>
      <point x="385" y="-10"/>
      <point x="455" y="15"/>
      <point x="475" y="55" type="curve"/>
      <point x="500" y="15"/>
      <point x="565" y="-10"/>
      <point x="650" y="-10" type="curve" smooth="yes"/>
      <point x="840" y="-10"/>
      <point x="900" y="35"/>
      <point x="900" y="165" type="curve"/>
      <point x="900" y="170" type="line"/>
      <point x="750" y="170" type="line"/>
      <point x="750" y="165" type="line"/>
      <point x="750" y="145"/>
      <point x="735" y="140"/>
      <point x="650" y="140" type="curve" smooth="yes"/>
      <point x="570" y="140"/>
      <point x="550" y="150"/>
      <point x="550" y="190" type="curve" smooth="yes"/>
      <point x="550" y="250" type="line"/>
    </contour>
    <contour>
      <point x="400" y="210" type="curve"/>
      <point x="400" y="180" type="line"/>
      <point x="400" y="155"/>
      <point x="375" y="130"/>
      <point x="260" y="130" type="curve"/>
      <point x="210" y="130"/>
      <point x="190" y="135"/>
      <point x="190" y="160" type="curve"/>
      <point x="190" y="180"/>
      <point x="200" y="200"/>
    </contour>
    <contour>
      <point x="550" y="250" type="line"/>
      <point x="550" y="310" type="line" smooth="yes"/>
      <point x="550" y="350"/>
      <point x="570" y="360"/>
      <point x="650" y="360" type="curve" smooth="yes"/>
      <point x="730" y="360"/>
      <point x="750" y="350"/>
      <point x="750" y="320" type="curve"/>
      <point x="750" y="290" type="line"/>
      <point x="900" y="290" type="line"/>
      <point x="900" y="320" type="line"/>
      <point x="900" y="460"/>
      <point x="840" y="510"/>
      <point x="650" y="510" type="curve" smooth="yes"/>
      <point x="565" y="510"/>
      <point x="515" y="495"/>
      <point x="475" y="450" type="curve"/>
      <point x="435" y="495"/>
      <point x="385" y="510"/>
      <point x="300" y="510" type="curve" smooth="yes"/>
      <point x="110" y="510"/>
      <point x="50" y="445"/>
      <point x="50" y="345" type="curve"/>
      <point x="50" y="325" type="line"/>
      <point x="200" y="325" type="line"/>
      <point x="200" y="335" type="line"/>
      <point x="200" y="360"/>
      <point x="220" y="370"/>
      <point x="300" y="370" type="curve" smooth="yes"/>
      <point x="385" y="370"/>
      <point x="400" y="360"/>
      <point x="400" y="305" type="curve" smooth="yes"/>
      <point x="400" y="220" type="line"/>
    </contour>
    <contour>
      <point x="300.0" y="500.0" type="move" name="top"/>
    </contour>
    <contour>
      <point x="700.0" y="500.0" type="move" name="top"/>
    </contour>
    <contour>
      <point x="650.0" y="500.0" type="move" name="top"/>
    </contour>
  </outline>
</glyph>
<glyph name="IJ" format="1">
  <advance width="500"/>
  <unicode hex="0132"/>
  <outline>
    <contour>
      <point x="50" y="180" type="line"/>
      <point x="50" y="40"/>
      <point x="110" y="-10"/>
      <point x="250" y="-10" type="curve" smooth="yes"/>
      <point x="380" y="-10"/>
      <point x="450" y="50"/>
      <point x="450" y="190" type="curve"/>
      <point x="450" y="700" type="line"/>
      <point x="300" y="700" type="line"/>
      <point x="300" y="190" type="line" smooth="yes"/>
      <point x="300" y="150"/>
      <point x="280" y="140"/>
      <point x="250" y="140" type="curve" smooth="yes"/>
      <point x="220" y="140"/>
      <point x="200" y="150"/>
      <point x="200" y="185" type="curve"/>
      <point x="200" y="200" type="line"/>
      <point x="50" y="200" type="line"/>
    </contour>
    <contour>
      <point x="50" y="300" type="line"/>
      <point x="200" y="300" type="line"/>
      <point x="200" y="700" type="line"/>
      <point x="50" y="700" type="line"/>
    </contour>
    <contour>
      <point x="125" y="650" type="move" name="top"/>
    </contour>
  </outline>
</glyph>
<glyph name="oe" format="1">
  <advance width="950"/>
  <unicode hex="0153"/>
  <outline>
    <contour>
      <point x="450" y="205" type="line"/>
      <point x="900" y="205" type="line"/>
      <point x="900" y="295" type="line"/>
      <point x="450" y="295" type="line"/>
    </contour>
    <contour>
      <point x="400" y="260" type="curve" smooth="yes"/>
      <point x="400" y="240" type="line" smooth="yes"/>
      <point x="400" y="160"/>
      <point x="380" y="140"/>
      <point x="300" y="140" type="curve"/>
      <point x="220" y="140"/>
      <point x="200" y="160"/>
      <point x="200" y="240" type="curve" smooth="yes"/>
      <point x="200" y="260" type="line" smooth="yes"/>
      <point x="200" y="340"/>
      <point x="220" y="360"/>
      <point x="300" y="360" type="curve"/>
      <point x="380" y="360"/>
      <point x="400" y="340"/>
    </contour>
    <contour>
      <point x="550" y="310" type="move"/>
      <point x="550" y="350"/>
      <point x="570" y="360"/>
      <point x="650" y="360" type="curve" smooth="yes"/>
      <point x="730" y="360"/>
      <point x="750" y="350"/>
      <point x="750" y="320" type="curve"/>
      <point x="750" y="290" type="line"/>
      <point x="900" y="290" type="line"/>
      <point x="900" y="320" type="line"/>
      <point x="900" y="460"/>
      <point x="840" y="510"/>
      <point x="650" y="510" type="curve" smooth="yes"/>
      <point x="565" y="510"/>
      <point x="515" y="495"/>
      <point x="475" y="450" type="curve"/>
      <point x="435" y="495"/>
      <point x="385" y="510"/>
      <point x="300" y="510" type="curve"/>
      <point x="120" y="510"/>
      <point x="50" y="425"/>
      <point x="50" y="280" type="curve"/>
      <point x="50" y="220" type="line"/>
      <point x="50" y="75"/>
      <point x="120" y="-10"/>
      <point x="300" y="-10" type="curve"/>
      <point x="385" y="-10"/>
      <point x="455" y="15"/>
      <point x="475" y="55" type="curve"/>
      <point x="500" y="15"/>
      <point x="565" y="-10"/>
      <point x="650" y="-10" type="curve" smooth="yes"/>
      <point x="840" y="-10"/>
      <point x="900" y="35"/>
      <point x="900" y="165" type="curve"/>
      <point x="900" y="170" type="line"/>
      <point x="750" y="170" type="line"/>
      <point x="750" y="165" type="line"/>
      <point x="750" y="145"/>
      <point x="735" y="140"/>
      <point x="650" y="140" type="curve" smooth="yes"/>
      <point x="570" y="140"/>
      <point x="550" y="150"/>
      <point x="550" y="190" type="curve" smooth="yes"/>
    </contour>
    <contour>
      <point x="300.0" y="500.0" type="move" name="top"/>
    </contour>
    <contour>
      <point x="700.0" y="500.0" type="move" name="top"/>
    </contour>
    <contour>
      <point x="300" y="500" type="move" name="top"/>
    </contour>
  </outline>
</glyph>
<glyph name="tilde" format="1">
  <advance width="200"/>
  <unicode hex="02DC"/>
  <outline>
    <contour>
      <point x="-50" y="560" type="line"/>
      <point x="-50" y="612" type="line" smooth="yes"/>
      <point x="-50" y="673"/>
      <point x="-25" y="700"/>
      <point x="17" y="700" type="curve"/>
      <point x="59" y="700"/>
      <point x="90" y="665"/>
      <point x="110" y="665" type="curve" smooth="yes"/>
      <point x="120" y="665"/>
      <point x="125" y="670"/>
      <point x="125" y="685" type="curve" smooth="yes"/>
      <point x="125" y="700" type="line"/>
      <point x="125" y="700"/>
      <point x="250" y="700"/>
      <point x="250" y="700" type="curve"/>
      <point x="250" y="645" type="line" smooth="yes"/>
      <point x="250" y="600"/>
      <point x="222" y="561"/>
      <point x="180" y="561" type="curve"/>
      <point x="140" y="561"/>
      <point x="115" y="595"/>
      <point x="95" y="595" type="curve"/>
      <point x="85" y="595"/>
      <point x="80" y="590"/>
      <point x="80" y="575" type="curve" smooth="yes"/>
      <point x="80" y="560" type="line"/>
    </contour>
    <contour>
      <point x="100.0" y="500.0" type="move" name="_top"/>
    </contour>
  </outline>
</glyph>
<glyph name="Euro" format="1">
  <advance width="600"/>
  <unicode hex="20AC"/>
  <outline>
    <contour>
      <point x="330" y="0" type="line" smooth="yes"/>
      <point x="470" y="0"/>
      <point x="550" y="70"/>
      <point x="550" y="220" type="curve"/>
      <point x="550" y="300" type="line"/>
      <point x="400" y="300" type="line"/>
      <point x="400" y="240" type="line" smooth="yes"/>
      <point x="400" y="170"/>
      <point x="370" y="150"/>
      <point x="300" y="150" type="curve"/>
      <point x="300" y="0" type="line"/>
    </contour>
    <contour>
      <point x="270" y="0" type="curve" smooth="yes"/>
      <point x="300" y="0" type="line"/>
      <point x="300" y="150" type="line"/>
      <point x="220" y="150"/>
      <point x="200" y="170"/>
      <point x="200" y="240" type="curve" smooth="yes"/>
      <point x="200" y="350" type="line"/>
      <point x="50" y="350" type="line"/>
      <point x="50" y="245" type="line"/>
      <point x="50" y="70"/>
      <point x="130" y="0"/>
    </contour>
    <contour>
      <point x="330" y="700" type="curve" smooth="yes"/>
      <point x="300" y="700" type="line"/>
      <point x="300" y="550" type="line"/>
      <point x="370" y="550"/>
      <point x="400" y="530"/>
      <point x="400" y="460" type="curve" smooth="yes"/>
      <point x="400" y="400" type="line"/>
      <point x="550" y="400" type="line"/>
      <point x="550" y="480" type="line"/>
      <point x="550" y="630"/>
      <point x="470" y="700"/>
    </contour>
    <contour>
      <point x="270" y="700" type="line" smooth="yes"/>
      <point x="130" y="700"/>
      <point x="50" y="630"/>
      <point x="50" y="455" type="curve"/>
      <point x="50" y="350" type="line"/>
      <point x="200" y="350" type="line"/>
      <point x="200" y="460" type="line" smooth="yes"/>
      <point x="200" y="530"/>
      <point x="220" y="550"/>
      <point x="300" y="550" type="curve"/>
      <point x="300" y="700" type="line"/>
    </contour>
    <contour>
      <point x="15" y="375" type="line"/>
      <point x="335" y="375" type="line"/>
      <point x="345" y="450" type="line"/>
      <point x="25" y="450" type="line"/>
    </contour>
    <contour>
      <point x="0" y="250" type="line"/>
      <point x="315" y="250" type="line"/>
      <point x="325" y="325" type="line"/>
      <point x="10" y="325" type="line"/>
    </contour>
  </outline>
</glyph>
<glyph name="Box_Drawings_Heavy_Vertical_and_Horizontal" format="1">
  <advance width="1000"/>
  <outline>
    <contour>
      <point x="50" y="200" type="line"/>
      <point x="950" y="200" type="line"/>
      <point x="950" y="300" type="line"/>
      <point x="50" y="300" type="line"/>
    </contour>
    <contour>
      <point x="550" y="-200" type="line"/>
      <point x="550" y="700" type="line"/>
      <point x="450" y="700" type="line"/>
      <point x="450" y="-200" type="line"/>
    </contour>
  </outline>
</glyph>
<glyph name="Square_with_Horizontal_Fill" format="1">
  <advance width="1000"/>
  <outline>
    <contour>
      <point x="150" y="-100" type="line"/>
      <point x="150" y="600" type="line"/>
      <point x="850" y="600" type="line"/>
      <point x="850" y="-100" type="line"/>
    </contour>
    <contour>
      <point x="50" y="-200" type="line"/>
      <point x="950" y="-200" type="line"/>
      <point x="950" y="700" type="line"/>
      <point x="50" y="700" type="line"/>
    </contour>
    <contour>
      <point x="100" y="0" type="line"/>
      <point x="900" y="0" type="line"/>
      <point x="900" y="100" type="line"/>
      <point x="100" y="100" type="line"/>
    </contour>
    <contour>
      <point x="100" y="200" type="line"/>
      <point x="900" y="200" type="line"/>
      <point x="900" y="300" type="line"/>
      <point x="100" y="300" type="line"/>
    </contour>
    <contour>
      <point x="100" y="400" type="line"/>
      <point x="900" y="400" type="line"/>
      <point x="900" y="500" type="line"/>
      <point x="100" y="500" type="line"/>
    </contour>
  </outline>
</glyph>
<glyph name="dotlessj" format="1">
  <advance width="250"/>
  <outline>
    <contour>
      <point x="0" y="-210" type="curve" smooth="yes"/>
      <point x="130" y="-210"/>
      <point x="200" y="-150"/>
      <point x="200" y="-35" type="curve" smooth="yes"/>
      <point x="200" y="500" type="line"/>
      <point x="50" y="500" type="line"/>
      <point x="50" y="-35" type="line" smooth="yes"/>
      <point x="50" y="-75"/>
      <point x="30" y="-85"/>
      <point x="0" y="-85" type="curve" smooth="yes"/>
      <point x="-30" y="-85"/>
      <point x="-50" y="-75"/>
      <point x="-50" y="-40" type="curve"/>
      <point x="-50" y="-25" type="line"/>
      <point x="-200" y="-25" type="line"/>
      <point x="-200" y="-45" type="line"/>
      <point x="-200" y="-150"/>
      <point x="-140" y="-210"/>
    </contour>
  </outline>
</glyph>
<glyph name="four.sup" format="1">
  <advance width="400"/>
  <outline>
    <contour>
      <point x="350" y="350" type="line"/>
      <point x="350" y="550" type="line"/>
      <point x="310" y="550" type="line"/>
      <point x="260" y="500" type="line"/>
      <point x="260" y="350" type="line"/>
    </contour>
    <contour>
      <point x="350" y="400" type="line"/>
      <point x="350" y="490" type="line"/>
      <point x="205" y="490" type="line"/>
      <point x="170" y="480" type="line"/>
      <point x="165" y="490" type="line"/>
      <point x="195" y="515" type="line"/>
      <point x="330" y="685" type="line" smooth="yes"/>
      <point x="330" y="700" type="line"/>
      <point x="225" y="700" type="line"/>
      <point x="50" y="470" type="line"/>
      <point x="50" y="400" type="line"/>
    </contour>
  </outline>
</glyph>
<glyph name="two.sup" format="1">
  <advance width="400"/>
  <outline>
    <contour>
      <point x="50" y="480" type="curve"/>
      <point x="50" y="400" type="line"/>
      <point x="350" y="400" type="line"/>
      <point x="350" y="490" type="line"/>
      <point x="260" y="490" type="line"/>
      <point x="260" y="480" type="line"/>
      <point x="190" y="480" type="line"/>
      <point x="170" y="480"/>
      <point x="160" y="480"/>
      <point x="150" y="470" type="curve"/>
      <point x="140" y="480" type="line"/>
      <point x="140" y="535"/>
      <point x="350" y="455"/>
      <point x="350" y="600" type="curve" smooth="yes"/>
      <point x="350" y="680"/>
      <point x="280" y="710"/>
      <point x="200" y="710" type="curve" smooth="yes"/>
      <point x="110" y="710"/>
      <point x="50" y="680"/>
      <point x="50" y="590" type="curve"/>
      <point x="140" y="590" type="line"/>
      <point x="140" y="615"/>
      <point x="160" y="625"/>
      <point x="200" y="625" type="curve" smooth="yes"/>
      <point x="230" y="625"/>
      <point x="260" y="620"/>
      <point x="260" y="600" type="curve" smooth="yes"/>
      <point x="260" y="555"/>
      <point x="50" y="620"/>
    </contour>
  </outline>
</glyph>
